<?xml version="1.0" standalone="no"?>
<!DOCTYPE svg PUBLIC "-//W3C//DTD SVG 20010904//EN"
 "http://www.w3.org/TR/2001/REC-SVG-20010904/DTD/svg10.dtd">
<svg version="1.0" xmlns="http://www.w3.org/2000/svg"
 width="700.000000pt" height="700.000000pt" viewBox="0 0 700.000000 700.000000"
 preserveAspectRatio="xMidYMid meet">
<metadata>
Created by potrace 1.14, written by Peter Selinger 2001-2017
</metadata>
<g transform="translate(0.000000,700.000000) scale(0.100000,-0.100000)"
fill="#000000" stroke="none">
<path d="M0 3500 l0 -3500 3500 0 3500 0 0 3500 0 3500 -3500 0 -3500 0 0
-3500z m4072 1402 c5 -5 565 -1805 655 -2106 8 -27 18 -45 23 -40 4 5 132 389
285 854 152 465 310 947 351 1073 l75 227 409 0 410 0 0 -1410 0 -1410 -280 0
-280 0 0 773 c0 519 5 880 15 1101 8 181 12 332 9 335 -3 3 -8 0 -12 -6 -4 -6
-169 -504 -367 -1107 l-360 -1096 -277 0 -277 0 -26 88 c-222 733 -652 2116
-660 2119 -7 2 -6 -72 3 -214 7 -129 15 -579 18 -1104 l6 -886 -32 -7 c-42 -8
-463 -8 -525 0 l-47 7 6 976 c4 537 9 1035 12 1106 4 84 2 126 -4 120 -6 -5
-123 -354 -262 -775 -138 -421 -301 -915 -361 -1098 l-110 -332 -277 2 -276 3
-338 1099 c-185 604 -339 1101 -342 1104 -3 3 -8 3 -11 0 -3 -2 2 -130 11
-284 11 -191 18 -538 21 -1101 l5 -823 -271 0 -271 0 0 1410 0 1410 410 0 409
0 14 -47 c98 -326 651 -2100 657 -2106 4 -5 72 189 151 430 79 241 239 726
354 1078 l211 640 164 6 c204 8 973 1 982 -9z"/>
</g>
</svg>
